<svg width="26" height="26" viewBox="0 0 26 26" fill="none" xmlns="http://www.w3.org/2000/svg">
<path fill-rule="evenodd" clip-rule="evenodd" d="M0.554688 13.0001C0.554688 6.12723 6.12626 0.555664 12.9991 0.555664C16.2996 0.555664 19.4649 1.86677 21.7987 4.20056C24.1325 6.53434 25.4436 9.69964 25.4436 13.0001C25.4436 19.873 19.872 25.4446 12.9991 25.4446C6.12626 25.4446 0.554688 19.873 0.554688 13.0001ZM12.6379 17.617L18.8602 11.3948C19.3481 10.9068 19.3481 10.1157 18.8602 9.6277C18.3722 9.13972 17.581 9.13972 17.093 9.6277L11.7544 14.9788L8.9046 12.1166C8.58894 11.8009 8.12885 11.6776 7.69765 11.7932C7.26644 11.9087 6.92963 12.2455 6.81409 12.6767C6.69855 13.1079 6.82183 13.568 7.13749 13.8837L10.8708 17.617C11.1045 17.8526 11.4226 17.9851 11.7544 17.9851C12.0862 17.9851 12.4043 17.8526 12.6379 17.617Z" fill="#23262F"/>
</svg>
