<svg width="13" height="13" viewBox="0 0 13 13" fill="none" xmlns="http://www.w3.org/2000/svg">
<path d="M12.625 1.30859C12.625 1.11719 12.543 0.953125 12.4062 0.816406C12.2695 0.707031 12.1055 0.625 11.9414 0.625H1.05859C0.839844 0.625 0.675781 0.707031 0.566406 0.816406C0.429688 0.953125 0.375 1.11719 0.375 1.30859V12.1914C0.375 12.3828 0.429688 12.5469 0.566406 12.6836C0.675781 12.8203 0.839844 12.875 1.05859 12.875H6.91016V8.11719H5.32422V6.28516H6.91016V4.91797C6.91016 4.15234 7.12891 3.55078 7.56641 3.11328C8.00391 2.70312 8.57812 2.48438 9.28906 2.48438C9.83594 2.48438 10.3281 2.51172 10.7109 2.53906V4.20703H9.72656C9.37109 4.20703 9.125 4.28906 8.98828 4.45312C8.87891 4.58984 8.82422 4.80859 8.82422 5.10938V6.28516H10.6562L10.4102 8.11719H8.82422V12.875H11.9414C12.1328 12.875 12.2969 12.8203 12.4336 12.6836C12.543 12.5469 12.625 12.3828 12.625 12.1914V1.30859Z" fill="white"/>
</svg>
