<svg width="15" height="15" viewBox="0 0 15 15" fill="none" xmlns="http://www.w3.org/2000/svg">
<path d="M5.25781 11.6055C5.25781 11.6055 5.23047 11.5781 5.20312 11.5508C5.17578 11.5508 5.14844 11.5234 5.09375 11.5234C4.98438 11.5234 4.95703 11.5781 4.95703 11.6328C4.95703 11.7148 4.98438 11.7422 5.09375 11.7422C5.20312 11.7422 5.25781 11.6875 5.25781 11.6055ZM4.41016 11.4961C4.41016 11.4414 4.46484 11.4141 4.57422 11.4414C4.65625 11.4688 4.68359 11.4961 4.68359 11.5508C4.68359 11.6055 4.65625 11.6328 4.62891 11.6328C4.57422 11.6602 4.54688 11.6602 4.51953 11.6328C4.46484 11.6328 4.4375 11.6055 4.41016 11.5781C4.38281 11.5508 4.38281 11.5234 4.41016 11.4961ZM5.61328 11.4414C5.69531 11.4414 5.75 11.4688 5.75 11.5234C5.75 11.5781 5.72266 11.6328 5.64062 11.6602C5.58594 11.6602 5.55859 11.6602 5.53125 11.6602C5.50391 11.6602 5.47656 11.6055 5.47656 11.5508C5.47656 11.4961 5.50391 11.4688 5.61328 11.4414ZM7.41797 0.96875C8.64844 0.96875 9.79688 1.26953 10.8633 1.84375C11.9023 2.44531 12.75 3.23828 13.3516 4.22266C13.9531 5.26172 14.2812 6.41016 14.2812 7.64062C14.2812 9.17188 13.8438 10.5117 12.9961 11.7148C12.1484 12.918 11.0547 13.7383 9.6875 14.1758C9.52344 14.2305 9.41406 14.2031 9.33203 14.1211C9.25 14.0664 9.22266 13.957 9.22266 13.8477V11.5508C9.22266 10.9766 9.05859 10.5664 8.75781 10.293C9.41406 10.2383 9.93359 10.1289 10.2617 10.0195C10.7539 9.85547 11.1641 9.58203 11.4375 9.19922C11.7383 8.73438 11.9023 8.07812 11.9023 7.25781C11.9023 6.92969 11.8203 6.62891 11.7109 6.35547C11.6016 6.19141 11.4375 5.94531 11.1914 5.67188C11.2461 5.50781 11.3008 5.28906 11.3281 5.01562C11.3281 4.63281 11.2734 4.22266 11.1367 3.8125C10.9453 3.75781 10.6992 3.8125 10.3711 3.92188C10.1523 4.03125 9.87891 4.14062 9.60547 4.30469L9.25 4.55078C8.67578 4.38672 8.10156 4.30469 7.5 4.30469C6.89844 4.30469 6.35156 4.38672 5.80469 4.55078L5.44922 4.30469C5.14844 4.14062 4.875 4.03125 4.65625 3.92188C4.32812 3.8125 4.08203 3.75781 3.91797 3.8125C3.75391 4.22266 3.67188 4.63281 3.72656 5.01562C3.72656 5.28906 3.75391 5.48047 3.83594 5.64453C3.61719 5.91797 3.45312 6.19141 3.34375 6.41016C3.23438 6.62891 3.20703 6.92969 3.20703 7.25781C3.20703 8.07812 3.34375 8.73438 3.64453 9.17188C3.89062 9.55469 4.27344 9.85547 4.79297 10.0195C5.12109 10.1289 5.61328 10.2383 6.26953 10.293C6.02344 10.5117 5.88672 10.8398 5.83203 11.2227C5.50391 11.3867 5.20312 11.4414 4.92969 11.3867C4.4375 11.3594 4.08203 11.1133 3.83594 10.6484C3.72656 10.457 3.5625 10.293 3.39844 10.1562C3.26172 10.1016 3.125 10.0195 2.98828 9.96484L2.79688 9.9375C2.57812 9.9375 2.46875 9.99219 2.46875 10.0469C2.46875 10.1016 2.49609 10.1836 2.60547 10.2383L2.74219 10.3477C2.85156 10.4297 2.98828 10.5391 3.125 10.7031C3.23438 10.8398 3.31641 10.9766 3.39844 11.1406L3.50781 11.3594C3.58984 11.6328 3.75391 11.8516 4.02734 11.9883C4.24609 12.125 4.49219 12.207 4.82031 12.2344C5.03906 12.2617 5.25781 12.2617 5.50391 12.207L5.80469 12.1797L5.83203 13.8477C5.83203 13.957 5.77734 14.0664 5.69531 14.1211C5.61328 14.2031 5.50391 14.2305 5.36719 14.1758C3.97266 13.7383 2.85156 12.918 2.00391 11.7148C1.12891 10.5117 0.71875 9.17188 0.71875 7.64062C0.71875 6.41016 0.992188 5.28906 1.59375 4.25C2.16797 3.23828 2.96094 2.44531 4 1.84375C5.01172 1.26953 6.16016 0.96875 7.41797 0.96875ZM3.37109 10.4023C3.39844 10.375 3.45312 10.375 3.50781 10.4297C3.5625 10.4844 3.5625 10.5391 3.53516 10.5664C3.48047 10.6211 3.45312 10.5938 3.39844 10.5391C3.34375 10.4844 3.31641 10.457 3.37109 10.4023ZM3.07031 10.1836C3.09766 10.1562 3.15234 10.1562 3.20703 10.1836C3.26172 10.2109 3.26172 10.2383 3.26172 10.293C3.23438 10.3477 3.17969 10.3477 3.125 10.293C3.07031 10.2656 3.04297 10.2383 3.07031 10.1836ZM3.97266 11.1406C3.97266 11.1406 4 11.1406 4.05469 11.1406C4.08203 11.1406 4.10938 11.168 4.13672 11.1953C4.16406 11.2227 4.19141 11.25 4.19141 11.2773C4.19141 11.332 4.19141 11.3594 4.19141 11.3594C4.13672 11.4141 4.05469 11.4141 4 11.332C3.94531 11.3047 3.94531 11.2773 3.94531 11.2227C3.94531 11.1953 3.94531 11.168 3.97266 11.1406ZM3.64453 10.7578C3.67188 10.7578 3.69922 10.7578 3.72656 10.7578C3.75391 10.7578 3.78125 10.7852 3.80859 10.8125C3.86328 10.8945 3.86328 10.9492 3.80859 10.9766C3.78125 11.0039 3.75391 11.0039 3.72656 10.9766C3.69922 10.9766 3.67188 10.9492 3.64453 10.9219C3.58984 10.8398 3.58984 10.7852 3.64453 10.7578Z" fill="white"/>
</svg>
