<svg width="15" height="12" viewBox="0 0 15 12" fill="none" xmlns="http://www.w3.org/2000/svg">
<path d="M13.0508 2.90625C13.5977 2.49609 14.0898 2.00391 14.5 1.40234C13.9531 1.64844 13.4062 1.8125 12.8594 1.86719C13.4609 1.48438 13.8984 0.964844 14.1172 0.28125C13.543 0.609375 12.9414 0.855469 12.2852 0.964844C12.0117 0.691406 11.6836 0.472656 11.3281 0.308594C10.9727 0.144531 10.5898 0.0625 10.1797 0.0625C9.66016 0.0625 9.19531 0.199219 8.75781 0.445312C8.32031 0.71875 7.96484 1.07422 7.71875 1.51172C7.44531 1.94922 7.33594 2.44141 7.33594 2.93359C7.33594 3.15234 7.33594 3.37109 7.39062 3.58984C6.21484 3.53516 5.12109 3.26172 4.08203 2.71484C3.04297 2.19531 2.19531 1.48438 1.48438 0.582031C1.21094 1.04688 1.07422 1.53906 1.07422 2.03125C1.07422 2.52344 1.18359 2.98828 1.42969 3.39844C1.64844 3.83594 1.97656 4.16406 2.35938 4.4375C1.89453 4.4375 1.45703 4.30078 1.07422 4.05469V4.10938C1.07422 4.79297 1.29297 5.39453 1.73047 5.91406C2.16797 6.46094 2.71484 6.78906 3.37109 6.92578C3.09766 6.98047 2.85156 7.00781 2.60547 7.00781C2.44141 7.00781 2.25 7.00781 2.08594 6.98047C2.25 7.55469 2.57812 8.01953 3.07031 8.40234C3.5625 8.78516 4.10938 8.94922 4.76562 8.94922C3.69922 9.76953 2.49609 10.1797 1.18359 10.1797C0.910156 10.1797 0.691406 10.1797 0.5 10.1523C1.8125 11.0273 3.28906 11.4375 4.90234 11.4375C6.57031 11.4375 8.04688 11.0273 9.35938 10.1523C10.5352 9.38672 11.4648 8.375 12.1211 7.0625C12.75 5.85938 13.0781 4.57422 13.0781 3.26172C13.0781 3.09766 13.0508 2.98828 13.0508 2.90625Z" fill="white"/>
</svg>
